<?xml version="1.0" encoding="utf-8"?>
<!-- Generator: Adobe Illustrator 19.0.0, SVG Export Plug-In . SVG Version: 6.00 Build 0)  -->
<svg version="1.1" id="Capa_1" xmlns="http://www.w3.org/2000/svg" xmlns:xlink="http://www.w3.org/1999/xlink" x="0px" y="0px"
	 viewBox="0 0 225.4 177.1" style="enable-background:new 0 0 225.4 177.1;" xml:space="preserve">
<style type="text/css">
	.st0{opacity:0.18;fill:#030104;enable-background:new    ;}
	.st1{fill:#FFFFFF;}
	.st2{fill:#5387C3;}
	.st3{fill:#626060;}
	.st4{fill:#626060;stroke:#FFFFFF;stroke-miterlimit:10;}
	.st5{opacity:0;fill:#030104;stroke:#FFFFFF;stroke-miterlimit:10;enable-background:new    ;}
	.st6{fill:#FCFCFC;}
	.st7{fill:#507FB5;}
	.st8{opacity:0.29;fill:url(#SVGID_1_);enable-background:new    ;}
</style>
<ellipse class="st0" cx="108" cy="89.9" rx="89.7" ry="87.2"/>
<path class="st1" d="M134.7,24.9c0.7-0.1,1.4-0.1,2.1-0.2c0.2,3.7,0.4,7.4,0.6,11.1c-0.7,0.1-1.2,0.2-2,0.3
	C135.2,32.3,134.9,28.6,134.7,24.9z"/>
<path class="st1" d="M145.2,27.2c-0.6,0-1.1,0-1.8,0c0.4-0.9-0.1-1.7,0-2.5c0-0.5,0.6-0.9,0.6-1.4c0-0.4-1-0.4-0.6-1.3
	c0.2-0.5-0.3-1.2-0.1-1.8c0.2-1.1-0.2-2.2,0-3.4c0.6,0.2,1.2,0.3,2,0.5c-0.1,0.5-0.2,1.1-0.3,1.8l0.3,1.1c-0.1,0.4-0.1,0.9-0.4,1.2
	c-0.6,0.8-0.2,1.2,0.5,1.6c-0.3,0.2-0.6,0.4-0.9,0.7c0.1,0.1,0.1,0.1,0.2,0.2c0.1-0.2,0.2-0.3,0.6-0.8c0.1,1.2,0.3,2.1-0.2,3.1
	c0,0.1,0.7,0.6-0.2,0.6C144.9,26.9,145,27,145.2,27.2z"/>
<path class="st1" d="M145.2,30.3c-0.2-0.3-0.4-0.5-0.6-0.7c1,1.7,0.7,3.5,0.8,5.2c-0.6-0.9-1.2-1.7-1.8-2.5c-0.1-0.1,0-0.2-0.1-0.3
	c0-1-0.1-2,0-3c0-0.1,0.2-0.3,0.4-0.4c0.1,0,0.3,0.1,0.4,0.1c-0.3-0.4-0.5-0.8-0.7-1.2C145.2,27.4,145.7,28.2,145.2,30.3z"/>
<path class="st1" d="M177.2,30.2c0.6-0.8,0.7,0.3,1.1,0.3c-0.3,1.8-0.6,3.7-0.9,5.5c-0.1,0-0.2,0-0.4-0.1c0.1-0.6,0.1-1.2,0.2-1.8
	c0,0,0,0,0,0c-0.1,0.6-0.3,1.3-0.4,1.9c-0.1,0-0.2,0-0.3,0C176.8,34.1,177,32.1,177.2,30.2C177.3,30.2,177.2,30.2,177.2,30.2z"/>
<path class="st1" d="M147.1,26.8c-1.5-1.9-0.7-4-0.8-6.3c0.4,0.3,0.9,0.5,0.9,0.7c0,1.8,0,3.6,0,5.4
	C147.2,26.6,147.1,26.7,147.1,26.8z"/>
<path class="st1" d="M187.3,33.5c0.3-0.4,0.5-0.8,0.8-1.2c0.7,1.2,0.9,1.6-2,2.5c0-0.3-0.1-0.6-0.1-0.8c0-0.2,0.2-0.5,0.3-0.8
	C186.6,33.4,186.9,33.5,187.3,33.5z"/>
<path class="st1" d="M156,32.8c0.1-1.3,0.2-2.5,0.2-3.8c0.1,0,0.2,0,0.3,0c0,1.3,0,2.5,0,3.8C156.4,32.8,156.2,32.8,156,32.8z"/>
<path class="st1" d="M111.5,35.6c-0.3-1.2-0.6-2-0.8-2.9c-0.1-0.3,0.2-0.6,0.3-0.9c0.2,0.2,0.5,0.4,0.5,0.6c0.2,0.8,0.3,1.5,0.4,2.3
	C111.9,34.9,111.7,35.1,111.5,35.6z"/>
<path class="st1" d="M159.7,36.2c0.1-2.3,0.3-4.5,0.4-6.8c0.1,0,0.3,0,0.4,0c-0.2,2.3-0.3,4.5-0.5,6.8
	C159.9,36.2,159.8,36.2,159.7,36.2z"/>
<path class="st1" d="M159.2,34.1c-0.2,0.5-0.3,1-0.5,1.5c-0.1,0-0.1,0-0.2,0c0.1-2.1,0.2-4.2,0.4-6.3c0.1,0,0.3,0,0.4,0
	c-0.1,1.1-0.2,2.2-0.2,3.4C159,33.2,159.1,33.7,159.2,34.1C159.2,34.2,159.2,34.1,159.2,34.1z"/>
<path class="st1" d="M119.7,35.9c0-0.9-0.7-1.8-0.1-2.7c0.1,0,0.3,0,0.4,0c0.1,0.9,0.2,1.8,0.3,2.7C120,35.9,119.8,35.9,119.7,35.9z
	"/>
<path class="st2" d="M127.9,27.2c-0.2-1.2-0.3-2.5-0.5-3.7c-0.1-0.8-0.8-1-1.5-0.6c-0.4,0.2-0.8,0.5-1.2,0.8
	c-0.2-0.5-0.3-0.8-0.4-1.1c0.6-0.2,1.2-0.4,1.7-0.6c0,0-0.1-0.1-0.1-0.1c0.4,0,0.8,0.1,1.3,0.1c0-0.1,0-0.3,0.1-0.4
	c-0.3-0.2-0.7-0.3-1-0.5c-0.3-0.2-0.5-0.5-0.7-0.8c0-0.1,0.2-0.5,0.4-0.5c0.4,0,0.7,0.1,1.1,0.2c0.4-0.3,0.8-0.6,1.3-1
	c0.1,0.1,0.2,0.2,0.4,0.3c-0.3,0.9-0.6,1.7-1,2.6c0.1,0,0.2,0.1,0.3,0.1c0.7-0.5,1.4-0.9,2-1.4c0.1,0,0.2,0.1,0.4,0.1
	c-1,1.1,0.2,0.8,0.7,1.5c-0.7,0-1.3-0.1-1.8,0c-0.5,0.1-1.1,0.2-1.4,0.5c-0.2,0.2,0.1,0.8,0.3,1.6c0,0.7,0,1.7,0,2.8
	C128.2,27.2,128,27.2,127.9,27.2z"/>
<g>
	<polygon class="st3" points="102,48.6 8.2,66.8 11.5,144.5 69,173.7 159.5,141.8 162,62.8 	"/>
</g>
<polygon class="st3" points="102.1,48.1 7.6,66.3 12.5,144.5 68.9,173.6 160.1,141.6 162.6,62.3 "/>
<path class="st3" d="M28.9,72.9l-0.4-0.1c-0.4,0.1-0.6,0.3-0.8,0.4l4.1,1.4l6.9,2.2c0.1-0.3,0.3-0.6,0.7-0.6L28.9,72.9z"/>
<path class="st4" d="M68.9,173.6c0.8-3.3-1.7-79-1.9-88.8C66.2,88.3,68.1,166.1,68.9,173.6z"/>
<polygon class="st4" points="162.6,63.1 66.9,85.6 66.9,84.8 162.6,62.3 "/>
<polygon class="st4" points="66.9,84.8 7.6,66.3 7.6,66.4 31.8,74.7 66.9,85.6 "/>
<path class="st3" d="M34.2,74.6l94.5-20.3c-0.2,0-0.4-0.1-0.5-0.1L33.8,74.5L34.2,74.6z"/>
<g>
	<polygon class="st5" points="7.6,66.3 11.5,144.5 68.9,173.6 66.9,84.8 	"/>
	<polygon class="st3" points="66.9,84.8 162.6,62.3 160.1,141.6 68.9,173.6 	"/>
	<polygon class="st3" points="7.6,66.3 102.1,48.1 162.6,62.3 66.9,84.8 	"/>
	<path class="st6" d="M28.5,72.8l10.9,3.4l93.7-20.9c-2.9-0.7-5.7-1.4-8.5-2L28.5,72.8z"/>
	<path class="st6" d="M28.5,72.8c-1,0.4-1.1,0.6-1.2,2.3c-0.1,1.7,0.4,15.4,0.4,15.4l10.8,4.1c0,0,0-15.2,0-16.3s0.1-2,0.8-2.1
		L28.5,72.8z"/>
	<g>
		<polygon class="st6" points="156.3,137.8 125.7,150.2 125.1,117.8 157.4,108.2 		"/>
		<polygon class="st6" points="125.7,134 156.6,123.2 156.6,123.5 125.7,134.4 		"/>
		<polygon class="st6" points="142.1,113 141.8,143.4 141.4,143.6 141.7,113.1 		"/>
	</g>
	<g>
		<g>
			<path class="st3" d="M149,136.4c0,0-2.8,1.1-3.8,1.5c-1,0.4-1.3,0.1-1.3,0.1s1.3,1.9,2,1.6c0.6-0.2,3-1.2,3-1.2L149,136.4z"/>
			<g>
				<path class="st3" d="M147.6,135.3l-0.9-1.8l-2.4,1.3l0.7,0.1l-1,2.2c-0.3,0.7,0.5,0.8,1.2,0.5c0.2-0.1,0.4-0.2,0.6-0.2l0,0l0,0
					l1-2.1L147.6,135.3z"/>
			</g>
			<path class="st3" d="M151.7,132.5c0,0,1.3,1.8,1.8,2.4c0.5,0.6,0.3,1.1,0.3,1.1s1.5-2.8,1.2-3.3c-0.3-0.4-1.4-1.9-1.4-1.9
				L151.7,132.5z"/>
			<g>
				<path class="st3" d="M150.9,134.8l-1.4,2.4l1.4,1.2v-0.7l2-0.8c0.6-0.3,0.6-1.1,0.3-1.6c-0.1-0.1-0.2-0.3-0.3-0.4l0,0l0,0
					l-2,0.8L150.9,134.8z"/>
			</g>
			<path class="st3" d="M147.8,133.2c0,0,1.4-2.9,1.9-3.9c0.5-1,1-1.3,1-1.3s-2.8,0.9-3.2,1.7c-0.3,0.6-1.6,3.2-1.6,3.2L147.8,133.2
				z"/>
			<g>
				<path class="st3" d="M150,132l2.3-0.6l0.9-2.5l-0.6,0.6l-1-1.3c-0.4-0.4-1.1,0.3-1.5,1.1c-0.1,0.2-0.2,0.4-0.3,0.6l0,0l0,0
					l1,1.3L150,132z"/>
			</g>
		</g>
		<g>
			<polygon class="st3" points="133.7,129 133.1,129.3 133,125.3 133.7,125 			"/>
			<path class="st3" d="M131,130.6l5.1-1.8c0,0-1.6-0.1-2.7,0.2C132.4,129.4,131,130.6,131,130.6z"/>
			<path class="st3" d="M136.7,116l-5,1.5l0.7,3.2l-0.8-0.2l1.1,2.4l-1.9-2.8l1.1,0.3l-0.9-2.7l-1,0.3c0,0-1.1,9,3.4,7.5
				C137.8,124,136.7,116,136.7,116z"/>
		</g>
		<g>
			<polygon class="st3" points="153.9,122.7 145,125.8 145,124 154,120.9 			"/>
			<g>
				<polygon class="st3" points="148.1,122.5 146.4,123.1 146.5,116.5 148.2,116 				"/>
				<polygon class="st3" points="145.2,117.1 147.4,112.8 149.4,115.8 				"/>
			</g>
			<g>
				<polygon class="st3" points="152.8,120.9 151.2,121.4 151.4,115 153,114.5 				"/>
				<polygon class="st3" points="150.2,115.6 152.3,111.3 154.2,114.3 				"/>
			</g>
		</g>
		<g>
			<g>
				<path class="st3" d="M133.2,138.1c0,0,0.1,5.7,0,6.3c-0.1,0.8-1.2,2-1.8,0.6l-0.6,0.3c0,0,0.4,1.3,1.6,0.8
					c1.2-0.5,1.3-1.5,1.3-1.9s0-6.2,0-6.2L133.2,138.1z"/>
				<path class="st3" d="M130.5,141c0.4-0.2,0.8-0.2,1.2-0.2c0.5-0.4,1.1-0.8,1.7-1.1c0.7-0.3,1.3-0.3,1.9-0.2
					c0.4-0.3,0.9-0.6,1.4-0.8c0.8-0.3,1.5-0.3,2.1,0v0c0-2.5-2.3-3.6-5.1-2.6c-2.9,1.1-5.3,4-5.3,6.5c0,0,0,0,0,0
					C128.9,142,129.7,141.4,130.5,141z"/>
			</g>
			<g>
				<path class="st3" d="M132.1,135.6c0,0-1.3,1.2-0.8,1.3C131.9,137.1,132.1,135.6,132.1,135.6z"/>
				<path class="st3" d="M134.6,133.6c0,0-1.3,1.2-0.8,1.3C134.3,135.1,134.6,133.6,134.6,133.6z"/>
				<path class="st3" d="M137.1,131.7c0,0-1.3,1.2-0.8,1.3C136.8,133.1,137.1,131.7,137.1,131.7z"/>
				<path class="st3" d="M137.4,132.9c0,0-1.3,1.2-0.8,1.3C137.2,134.3,137.4,132.9,137.4,132.9z"/>
				<path class="st3" d="M135.8,134.4c0,0-1.3,1.2-0.8,1.3C135.5,135.8,135.8,134.4,135.8,134.4z"/>
			</g>
		</g>
	</g>
</g>
<polygon class="st0" points="105.2,139.7 104.7,134.1 108.1,119.8 114.3,118.4 "/>
<path class="st7" d="M9.5,120.3c0,0-13.5,21.7,24.9,7.7c34.5-12.6,64-27.2,64-27.2l9.6,5l-79.7,32.5l-20-2.3l-3.6-2.6l0.5-6.3
	L9.5,120.3z"/>
<path class="st7" d="M9.5,120.3c0,0-44.8,54,60.3,15.6c19.6-7.2,41-14.9,41-14.9l-5.6,18.6l56.5-50.9l-74.3,3.9l13.4,10.5
	c0,0-17.3,8.5-40.8,17.9C41.9,128.3-5.9,149.4,9.5,120.3z"/>
<linearGradient id="SVGID_1_" gradientUnits="userSpaceOnUse" x1="157.5647" y1="82.6917" x2="-0.38" y2="25.5702" gradientTransform="matrix(0.9999 1.170000e-002 1.170000e-002 -0.9999 -4.1268 177.0248)">
	<stop  offset="0" style="stop-color:#FFFFFF"/>
	<stop  offset="0.2971" style="stop-color:#F8ECD5"/>
	<stop  offset="0.5321" style="stop-color:#F4E0BC"/>
	<stop  offset="0.6742" style="stop-color:#F3DCB3"/>
	<stop  offset="1" style="stop-color:#EECD79"/>
</linearGradient>
<path class="st8" d="M161.8,88.8l-56.5,50.9l5.6-18.6c0,0-21.4,7.7-41,14.9c-105.1,38.4-60.3-15.6-60.3-15.6
	c-15.4,29.1,33.6,8.1,52.4,0.7C72.4,117.1,161.8,88.8,161.8,88.8z"/>
<polygon class="st7" points="87.5,92.7 88.3,89 160.2,86.2 161.8,88.8 "/>
<polygon class="st7" points="87.5,92.7 88.5,93.4 160.8,89.4 161.8,88.8 159.3,88.4 87.7,91.6 "/>
<path class="st0" d="M9.5,120.3c0,0-16,23.7,21.8,11.9c34.2-10.6,69.6-29.1,69.6-29.1s-45.7,21.5-70,28.7
	C4.8,139.5,4.2,131.3,9.5,120.3z"/>
<polygon class="st0" points="105.2,139.7 105.9,139.1 110.8,121.1 110.5,121.2 110.3,121.8 105.1,138.3 "/>
<polygon class="st7" points="108,131.1 158.1,88.3 160.9,88.5 161.8,88.8 105.2,139.7 105.9,138.5 "/>
<path class="st2" d="M196.9,73.6c-16.8,15.9-45.9,16.6-63.7-1c0.1,0.6,0.2,1.1,0.3,1.7c-9,3.5-18.4,5.4-28.3,6.3
	c1.4-2.1,2.7-4,3.9-5.9c0.7-1,1.8-2.1,1.7-3c-0.1-1-1.4-1.8-2.2-2.7c-1.1-1.2-2.3-2.4-3.4-3.7c3.5-0.6,7-1.2,10.4-1.8
	c0.6-0.1,1.3-0.3,1.9-0.4c1.5-0.1,1.8-0.9,1.7-2.2c-0.1-2,0-4-0.1-6c0-1.1,0.3-1.6,1.3-1.7c1.1-0.1,1.4-0.6,1.1-1.8
	c-4.7-22.6,9.5-42.8,30-49.2c19.5-6,40.5,1,51.6,17.5c6.6,9.8,8.6,20.6,6.2,32.1c-0.1,0.4-0.1,0.7-0.2,1.2c0.7,0.3,1.4,0.5,2.3,0.9
	c0,2.3,0.1,4.7,0,7.1c-0.1,1.3,0.5,1.8,1.7,2c3.8,0.6,7.6,1.2,11.4,1.9c0.2,0,0.4,0.1,0.9,0.2c-0.6,0.7-1.2,1.2-1.7,1.8
	c-1.2,1.2-2.3,2.5-3.5,3.7c-0.6,0.6-0.6,1-0.1,1.7c1.5,2.2,3,4.4,4.4,6.6c0.3,0.4,0.5,0.8,0.9,1.4c-1.9-0.2-3.6-0.3-5.3-0.6
	c-7.6-1.1-15-2.7-22.2-5.4C197.6,74.2,197.3,73.9,196.9,73.6z M176.2,41c0-0.4-0.1-0.7-0.1-1.1c-0.1,0-0.2,0-0.3,0
	c-0.1,2.1-0.3,4.3-0.4,6.4c0.3-0.2,0.4-0.5,0.4-0.8C175.9,43.9,176,42.4,176.2,41c0,1.7,0,3.5,0,5.7c0.2-1.5,0.4-2.7,0.5-3.9
	c0,1.2,0,2.4,0,3.6c0.1,0,0.1,0,0.2,0c0.1-0.4,0.1-0.8,0.2-1.2c0.1,0,0.1,0,0.2,0c0,0.4,0,0.8,0,1.2c0.1,0,0.2,0,0.3,0
	c0.2-2.9,0.5-5.9,0.7-8.8c0.1,0,0.1,0,0.2,0c0,0.6,0,1.2,0,1.9c0.1,0,0.2,0,0.3,0c0.2-2.2,0.4-4.4,0.5-6.5c-0.1,0-0.2,0-0.3,0
	c-0.1,1.1-0.3,2.3-0.4,3.4c0,0-0.1,0-0.1,0c0-1.2,0-2.5,0-3.7c-0.1,0-0.2,0-0.3,0c-0.3,3.8-0.6,7.6-0.9,11.4c-0.1,0-0.1,0-0.2,0
	c0-1.1,0.1-2.2,0.1-3.3c-0.1,0-0.2,0-0.3,0c-0.1,0.7-0.3,1.4-0.4,2c0.2-3.3,0.4-6.5,0.5-9.8c-0.1,0-0.2,0-0.3,0
	c-0.1,1.6-0.2,3.2-0.3,4.8c-0.1-0.5-0.2-1.1-0.1-1.6c0-1.2,0.2-2.4,0.3-3.7c-0.1,0-0.3,0-0.4,0c-0.1,2.3-0.3,4.6-0.4,6.8
	c0.1,0,0.1,0,0.2,0c0.2-0.5,0.4-1.1,0.5-1.6C176.4,38.8,176.3,39.9,176.2,41z M204.3,50.5c-0.1,0.3-0.1,0.6-0.2,1.1
	c1.3,0.3,2.4,0.7,3.8,1c0.3-1.7,0.6-3.4,0.9-5c-0.5,0-1,0.1-1.1,0c-1-1.3-1.5-0.5-2.1,0.3c1-1.7-0.6-1.7-1.7-2.1
	c0.6-0.4,1-0.6,1.4-0.9c0.2,0.4,0.5,0.9,0.7,1.3c0.1,0,0.2-0.1,0.2-0.1c0.1-0.7,0.1-1.4,0.2-2.3c0.9,0.6,1.5,1,2.2,1.5
	c-0.8,0.3-1.3,0.6-1.8,0.8c0,0.1,0.1,0.2,0.1,0.3c0.3,0,0.7-0.1,1-0.1c-0.1,0.1-0.2,0.2-0.2,0.3c0.3,0.2,0.7,0.4,1.2,0.7
	c0-2.5,0-4.7,0-6.6c-0.7-0.5-1.2-1-1.8-1.2c-0.5-0.2-1.2-0.4-1.6-0.2c-0.3,0.1-0.3,0.9-0.4,1.4c-0.1,0.3-0.1,0.6-0.2,0.9
	c-0.2,0.3-0.7,0.5-0.9,0.9c-0.4,0.8-0.6,1.6-0.9,2.4c-0.7,2-1.3,4-2.1,6.2C202.2,50.9,203.4,52.2,204.3,50.5z M196.2,33.4
	c-0.3,2.1-0.5,4.2-0.8,6.3c0.1,0,0.2,0,0.3,0c0.2-0.7,0.3-1.4,0.5-2.1c0,0,0,0,0.1,0c-0.1,0.6-0.1,1.3-0.2,1.9c0.1,0,0.3,0,0.4,0.1
	c0.3-2,0.7-4,1-6C197,33.7,196.8,32.6,196.2,33.4c0.3-1.1,0.8-1.3,1.8-0.8c0.5,0.3,1,0.6,1.6,0.9c-1,5.4-2,10.8-3.1,16.4
	c1.4,0.3,2.7,0.6,4,0.8c1-3,2-5.8,3-8.6c0.2-0.5,0.2-1.1,0.3-1.6c0.1-0.5,0.4-1,0.5-1.6c-0.6-0.1-1.2-0.3-1.8-0.4
	c-0.5-0.1-1,0-1.5,0c0-0.6,0.1-0.9,0.1-1.2c0.6-0.2,1.1-0.5,1.8-0.5c0.3,0,0.9,0.2,1,0.5c0.4,1.1,0.8,0.6,1.4,0.2
	c-0.6-0.7-1.1-1.3-1.8-2.1c0.5-0.3,0.9-0.7,1.3-0.6c0.4,0,0.7,0.5,1.2,0.9c0.5-0.2,1.3-0.4,2-0.7C205.6,20.6,191,1.9,166.5,1.4
	c-24-0.5-39.5,17.2-42.7,31.6c0.5,0,1,0.1,1.4,0c2.7-0.4,5.4-0.8,8.1-1.2c2.2-0.3,4.4-0.4,6.6-0.7c1.9-0.2,2.1-0.1,2.3,1.9
	c0.4,4.1,0.9,8.2,1.4,12.3c0,0.3,0.4,0.6,0.6,0.9c0.1-0.4,0.3-0.7,0.3-1.1c-0.3-2.7-0.7-5.4-1-8.2c-0.2-1.9-0.5-3.8-0.7-5.7
	c0.1,0,0.2,0,0.3,0c0.6,4.9,1.3,9.8,1.9,14.7c1.4,0.3,1.5-0.3,1.4-1.3c-0.5-5.3-1.1-10.6-1.5-15.9c0-0.4,0.3-1.1,0.5-1.2
	c2.8-0.5,5.5-0.9,8.6-1.3c0.3,6.4,0.6,12.5,1,18.7c1.2-0.1,2.1-0.2,3.1-0.2c0-0.4,0.1-0.6,0.1-0.9c-0.2-7.6-0.4-15.3-0.7-22.9
	c0-1-0.2-2,0-2.9c0.6-2.7,1.4-5.4,2.2-8.4c2,0,3.7-0.1,5.5,0c0.8,0,2.1,0,2.4,0.5c0.4,0.6,0,1.7,0,2.6c-0.1,5.4-0.2,10.8-0.2,16.2
	c-0.1,4.8-0.2,9.7-0.2,14.5c0,0.4,0.3,1.2,0.6,1.2c0.8,0.2,1.6,0.1,2.4,0.1c0.6-4.5,0-9,0.9-13.4c1.1-0.1,2.2,0.1,2.8-0.4
	c0.9-0.6,1.6-0.3,2.3-0.2c0.9,0.1,1.8,0.5,2.7,0.7c0.7,0.2,1.4,0.3,2.1,0.5c0,0.7,0,1.3-0.1,1.9c-0.3,3.4-0.6,6.7-0.9,10.1
	c-0.2,2.4-0.2,2.4,2.5,2.6c0.1-1,0.3-2,0.4-3c0.7-6.3,1.3-12.7,2-19.1c0.1-0.7,0.2-1.1,1-1.2c0.4,0,0.7-0.3,1.1-0.4
	c-0.2-0.4-0.4-0.7-0.6-1.1c2.5-0.2,5-0.8,7.4,0.3c-0.3,0.3-0.6,0.5-0.9,0.8c0.7,0.4,1.3,0.8,2.1,1.3c-1.2,8.1-2.5,16.3-3.8,24.9
	c0.9-0.3,1.5-0.5,2.1-0.6c0.6-0.1,1.5,0.2,1.9-0.1c0.4-0.4,0.4-1.2,0.6-1.9c0.1-0.5,0.2-1,0.3-1.5c0.3-2.6,0.3-2.6-2.1-3.3
	c0,0-0.1-0.1-0.2-0.2c0.1-0.4,0-1.2,0.3-1.4c1.3-0.9,0.9-2.3,1.2-3.5c0.2-0.8,0.3-1.7,0.5-2.5C195.5,33.9,195.9,33.7,196.2,33.4z
	 M132,68.2c0,0.2-0.1,0.3-0.1,0.5c1,1.1,1.9,2.2,2.9,3.2c10.6,9.9,23.2,13.8,37.5,11.8c10-1.4,18.5-5.8,25.4-13.2
	c0.5-0.5,0.8-1.2,1.3-2.2C176.4,64.2,154.2,63.3,132,68.2z M191.4,36.3c0.6-3.9,1.3-7.6,1.9-11.5c-1.3,0-2.5,0-3.7,0
	c-0.7-0.3-1.5-0.7-2.3-0.6c-0.7,0.1-1.1,0.7-1.2,1.6c-0.2,2-0.4,4-0.6,6c-0.2,2-0.3,3.9-0.7,5.9c-0.4,1.8,0.2,3.8-0.5,5.6
	c0,0,0,0.1,0.1,0.1c0.3-0.1,0.6-0.2,0.9-0.4c0.1,0.1,0.1,0.2,0.2,0.2c-0.4,0.5-0.8,1-1.2,1.4c0.1,0,0.2,0.1,0.3,0.1
	c-0.2,0.7-0.4,1.4-0.6,2.2c0.1,0.1,0.2,0.2,0.3,0.2c0.1-0.3,0.2-0.6,0.4-1.1c0.7,1.6,1.6,1.4,2.5,0.5c0.5,2,1.9,0.1,2.8,0.9
	c0.4-2.7,0.8-5.4,1.2-8.1c0.1-1.1,0.7-2.3-0.5-3.2c0,0,0.1-0.3,0.2-0.5C191,35.8,191.1,36,191.4,36.3z M149.9,27.6
	c0.3,4.1,0.6,8.1,0.8,12.1c0.8-0.1,1.4-0.2,2.1-0.3c-0.2-4.1-0.5-8-0.7-12.1C151.3,27.5,150.7,27.5,149.9,27.6z M123,36.5
	c-1.9,5.4,0.2,10.2,1.2,15.2c0.8-0.3,1.5-0.5,2-0.7C125.2,46.2,124.1,41.5,123,36.5z M176.7,54.8c0.1,0,0.2,0,0.2,0.1
	c0,0.5,0.1,0.9,0.1,1.4c0,1.1,0.1,2.2,0.2,3.3c0,0.2,0.3,0.4,0.5,0.6c0.1-0.2,0.4-0.4,0.4-0.6c-0.2-2.5-0.3-5.1-0.5-7.6
	c-0.1,0-0.2,0-0.3,0c-1.1,2.1-2.2,4.2-3.4,6.5c-0.9-2.4-1.7-4.6-2.5-6.8c-0.8,2.4-1.2,4.7-1.6,7c-0.1,0.3,0.2,0.7,0.3,1.1
	c0.2-0.3,0.5-0.6,0.6-1c0.3-1.4,0.5-2.9,0.7-4.3c0.1,0,0.2,0,0.2,0c0.7,1.9,1.4,3.7,2.2,5.9C174.9,58.3,175.8,56.6,176.7,54.8z
	 M149.5,54.7c1,2,2,3.7,3.1,5.8c0.8-2.2,1.5-4.1,2.2-6c0.4,1,0.5,2,0.7,2.9c0.2,0.8-0.1,1.9,0.8,2.5c0.2,0,0.3-0.1,0.5-0.1
	c-0.5-2.6-1-5.3-1.5-7.9c-0.1,0-0.2,0-0.3,0c-0.8,2.2-1.7,4.4-2.6,6.8c-1.2-2.3-2.3-4.3-3.3-6.4c-0.1,0-0.2,0.1-0.4,0.1
	c-0.1,2.7-0.3,5.3-0.4,8c0.4,0,0.6,0,0.6,0C149.1,58.5,149.2,56.7,149.5,54.7z M161.3,30.2c-0.3-0.2-0.4-0.3-0.5-0.4
	c1,0,0.2-0.6,0.2-0.7c0.6-1,0.3-2,0.2-3.4c-0.4,0.5-0.5,0.7-0.6,0.8c-0.1-0.1-0.1-0.2-0.2-0.2c0.3-0.2,0.6-0.5,0.9-0.7
	c-0.7-0.5-1.2-0.9-0.5-1.7c0.3-0.3,0.3-0.9,0.4-1.3l-0.3-1.2c0.1-0.7,0.2-1.4,0.3-2c-0.9-0.2-1.5-0.4-2.1-0.5
	c-0.2,1.3,0.2,2.5,0,3.7c-0.1,0.6,0.4,1.5,0.2,2c-0.5,1,0.6,1,0.6,1.4c0,0.5-0.7,1-0.7,1.5c-0.1,0.9,0.5,1.7,0,2.7
	C160.1,30.2,160.6,30.2,161.3,30.2z M165.2,51.1c-1.3,3-2.5,5.7-3.7,8.4c0.2,0.1,0.3,0.2,0.5,0.3c0.3-0.5,0.6-1,0.9-1.5
	c0.3-0.4,0.6-1.1,1.1-1.2c2-0.4,2.5-0.1,3.3,1.8c0.2,0.4,0.5,0.6,0.8,0.9c0.1-0.1,0.2-0.2,0.4-0.3C167.4,56.8,166.4,54.2,165.2,51.1
	z M170.8,45.1c0.1,0,0.2,0,0.3,0.1c0.1-0.2,0.2-0.3,0.3-0.5c0.2-0.8,0.4-1.6,0.6-2.4c0.4-1.1,0.7-2.6-0.2-3.9
	c-0.3-0.5-0.3-1.6,0-1.9c1.2-1.4,0.4-2.9,0.8-4.4c-0.6,0.1-0.9,0.1-1.4,0.2C171.2,36.5,171,40.8,170.8,45.1z M161.3,33.6
	c0.5-2.3,0-3.2-1.8-3c0.3,0.4,0.5,0.9,0.8,1.4c-0.2,0-0.3-0.1-0.5-0.1c-0.1,0.1-0.4,0.3-0.4,0.4c0,1.1,0,2.1,0,3.2
	c0,0.1,0,0.3,0.1,0.4c0.6,0.9,1.2,1.7,1.9,2.7c0-1.9,0.3-3.9-0.8-5.7C160.9,33.1,161,33.3,161.3,33.6z M178.9,46.1
	c0.4-4.5,0.7-8.9,1.1-13.3c-0.1,0-0.3,0-0.4,0c-0.3,4-0.7,7.9-1,11.9c-0.1,0-0.1,0-0.2,0c0.1-1.5,0.2-2.9,0.2-4.4
	c-0.1,0-0.2,0-0.4,0c-0.2,2-0.3,3.9-0.5,5.7C178.3,46,178.6,46,178.9,46.1z M181.9,53.3c0-0.1-0.2-0.5-0.4-0.9
	c-0.2,0.4-0.4,0.8-0.5,1.2c-0.2,2-0.4,4-0.5,6c0,0.3,0.2,0.6,0.3,1c0.2-0.3,0.5-0.6,0.6-1C181.5,57.6,181.7,55.6,181.9,53.3z
	 M162.2,11.4c0.6,1.5-0.7,3,0.6,4.2c0,0,0,0.1,0,0.2c-0.8,1.5-0.8,1.5,0.6,2.5c0-2.3,0-4.5,0-6.8C163.1,11.5,162.8,11.5,162.2,11.4z
	 M163.4,29.7c0.1-0.1,0.1-0.2,0.1-0.3c0-1.9,0.1-3.9,0-5.8c0-0.2-0.6-0.4-1-0.8C162.6,25.3,161.7,27.7,163.4,29.7z M159.4,51.6
	c-0.1,0-0.3,0-0.4,0.1c-0.1,0.3-0.2,0.6-0.2,0.8c0,2.1,0,4.3,0.1,6.4c0,0.3,0.3,0.6,0.5,0.9c0.1-0.3,0.4-0.6,0.4-1
	c0-2.1,0-4.1-0.1-6.2C159.7,52.3,159.5,51.9,159.4,51.6z M127.7,61c0.2-0.5,0.4-1.2,0.6-1.7c-0.6-0.3-1.2-0.6-1.6-0.9
	c-0.6,0.5-1.1,1-1.6,1.5c0.2,0.5,0.4,1.2,0.6,1.8C126.3,61.5,127,61.3,127.7,61z M205.3,59.4c-0.5-0.5-1.1-1-1.6-1.5
	c-0.6,0.3-1.1,0.5-1.6,0.8c0.2,0.7,0.4,1.4,0.6,1.9c0.8,0.1,1.4,0.2,2,0.3C204.9,60.5,205.1,60,205.3,59.4z M163,21.3
	c0.2,0.1,0.6,0.1,0.8,0.3c0.2,0.3,0.3,0.7,0.4,1c0.2-0.1,0.3-0.1,0.5-0.2c-0.6-1.5-1.2-2.9-1.8-4.4c-0.2,0-0.3,0.1-0.5,0.1
	c0,1.2,0,2.4,0,3.6c0,0.9,0.3,1.2,1.4,0.8C163.4,22.1,163.2,21.7,163,21.3z M207.1,37.1c-0.4-0.1-0.8-0.2-1.1-0.2
	c-0.1,0.3-0.3,0.6-0.3,0.8c0,0.3,0.1,0.6,0.1,0.9c3.1-1.1,3-1.5,2.2-2.8C207.7,36.2,207.4,36.6,207.1,37.1z M173.1,36.2
	c0.2,0,0.4,0,0.6,0c0-1.4,0-2.7,0-4.1c-0.1,0-0.2,0-0.3,0C173.2,33.5,173.2,34.9,173.1,36.2z M172.8,40.9c0.2,0,0.4,0,0.6,0
	c0-1.4,0-2.8,0-4.2c-0.1,0-0.2,0-0.3,0C173,38.2,172.9,39.6,172.8,40.9z M124.6,39.3c0.2-0.5,0.4-0.7,0.4-0.9
	c-0.1-0.8-0.2-1.7-0.4-2.5c-0.1-0.3-0.4-0.5-0.6-0.7c-0.1,0.3-0.3,0.7-0.3,0.9C123.9,37,124.2,38,124.6,39.3z M177.1,40
	c0.1,0,0.2,0,0.4,0c0.2-2.5,0.4-4.9,0.5-7.4c-0.1,0-0.3,0-0.4,0C177.4,35.1,177.2,37.5,177.1,40z M194.2,40c-0.6,1.3,0,1.6,0.8,1.6
	c0.3,0,0.7-0.4,1-0.5C195.4,40.8,194.9,40.4,194.2,40z M133.5,39.6c0.2,0,0.4,0,0.6,0c-0.1-1-0.2-2-0.3-2.9c-0.1,0-0.3,0-0.4,0
	C132.8,37.7,133.5,38.6,133.5,39.6z M164.4,17.5c-0.1,0-0.2,0-0.3,0c0,1.1,0,2.2,0,3.3c0.1,0,0.2,0,0.3,0
	C164.4,19.7,164.4,18.6,164.4,17.5z"/>
<path class="st1" d="M196.2,33.4c-0.2,0.2-0.6,0.4-0.7,0.7c-0.2,0.8-0.3,1.7-0.5,2.5c-0.3,1.2,0,2.6-1.2,3.5
	c-0.3,0.2-0.2,0.9-0.3,1.4c0.1,0.1,0.2,0.2,0.2,0.2c2.4,0.7,2.4,0.7,2.1,3.3c-0.1,0.5-0.2,1-0.3,1.5c-0.2,0.7-0.2,1.5-0.6,1.9
	c-0.4,0.3-1.3,0-1.9,0.1c-0.6,0.1-1.2,0.3-2.1,0.6c1.3-8.6,2.6-16.9,3.8-24.9c-0.8-0.5-1.5-0.9-2.1-1.3c0.3-0.3,0.6-0.5,0.9-0.8
	c-2.4-1.1-4.9-0.5-7.4-0.3c0.2,0.4,0.4,0.8,0.6,1.1c-0.4,0.2-0.7,0.4-1.1,0.4c-0.8,0-0.9,0.5-1,1.2c-0.6,6.4-1.3,12.7-2,19.1
	c-0.1,1-0.2,2-0.4,3c-2.7-0.1-2.7-0.1-2.5-2.6c0.3-3.4,0.6-6.7,0.9-10.1c0.1-0.6,0.1-1.2,0.1-1.9c-0.7-0.2-1.4-0.3-2.1-0.5
	c-0.9-0.2-1.8-0.5-2.7-0.7c-0.8-0.1-1.5-0.4-2.3,0.2c-0.6,0.5-1.7,0.2-2.8,0.4c-0.9,4.4-0.3,8.9-0.9,13.4c-0.8,0-1.6,0.1-2.4-0.1
	c-0.3-0.1-0.6-0.8-0.6-1.2c0-4.8,0.2-9.7,0.2-14.5c0.1-5.4,0.2-10.8,0.2-16.2c0-0.9,0.4-2,0-2.6c-0.3-0.5-1.6-0.5-2.4-0.5
	c-1.8-0.1-3.5,0-5.5,0c-0.8,3-1.6,5.7-2.2,8.4c-0.2,0.9,0,2,0,2.9c0.2,7.6,0.4,15.3,0.7,22.9c0,0.2,0,0.5-0.1,0.9
	c-1,0.1-2,0.2-3.1,0.2c-0.3-6.2-0.6-12.3-1-18.7c-3,0.4-5.8,0.8-8.6,1.3c-0.2,0-0.6,0.8-0.5,1.2c0.5,5.3,1,10.6,1.5,15.9
	c0.1,1,0,1.6-1.4,1.3c-0.6-4.9-1.3-9.8-1.9-14.7c-0.1,0-0.2,0-0.3,0c0.2,1.9,0.5,3.8,0.7,5.7c0.3,2.7,0.7,5.4,1,8.2
	c0,0.3-0.2,0.7-0.3,1.1c-0.2-0.3-0.5-0.6-0.6-0.9c-0.5-4.1-0.9-8.2-1.4-12.3c-0.2-2-0.4-2.1-2.3-1.9c-2.2,0.3-4.4,0.4-6.6,0.7
	c-2.7,0.4-5.4,0.8-8.1,1.2c-0.4,0.1-0.9,0-1.4,0c3.2-14.4,18.7-32.1,42.7-31.6c24.6,0.5,39.2,19.2,41.5,33.5c-0.7,0.2-1.5,0.5-2,0.7
	c-0.4-0.3-0.8-0.8-1.2-0.9c-0.4,0-0.8,0.4-1.3,0.6c0.7,0.8,1.2,1.4,1.8,2.1c-0.6,0.4-1,0.9-1.4-0.2c-0.1-0.3-0.7-0.6-1-0.5
	c-0.6,0.1-1.2,0.3-1.8,0.5c0,0.3,0,0.6-0.1,1.2c0.5,0,1-0.1,1.5,0c0.6,0.1,1.2,0.3,1.8,0.4c-0.2,0.5-0.4,1-0.5,1.6
	c-0.1,0.5-0.1,1.1-0.3,1.6c-1,2.8-2,5.6-3,8.6c-1.3-0.3-2.6-0.5-4-0.8c1-5.6,2-11,3.1-16.4c-0.6-0.3-1-0.6-1.6-0.9
	C197,32.1,196.5,32.3,196.2,33.4L196.2,33.4z M142.5,30.1c0.1,0,0.2,0,0.4,0c0-1.1,0-2.3,0-3c-0.2-0.8-0.5-1.6-0.3-1.7
	c0.3-0.3,1-0.5,1.5-0.5c0.6-0.1,1.2,0,2,0c-0.5-0.7-1.8-0.4-0.7-1.6c-0.1,0-0.3-0.1-0.4-0.1c-0.7,0.5-1.5,1-2.2,1.5
	c-0.1,0-0.2-0.1-0.3-0.1c0.4-1,0.7-1.9,1.1-2.9c-0.1-0.1-0.3-0.2-0.4-0.3c-0.5,0.4-1.1,0.8-1.5,1.1c-0.4-0.1-0.8-0.2-1.2-0.2
	c-0.1,0-0.4,0.5-0.4,0.5c0.2,0.3,0.5,0.6,0.8,0.8c0.3,0.2,0.7,0.4,1.1,0.6c0,0.1,0,0.3-0.1,0.4c-0.5,0-0.9-0.1-1.4-0.1
	c0,0,0.1,0.1,0.1,0.1c-0.6,0.2-1.2,0.4-1.9,0.6c0.1,0.3,0.2,0.7,0.4,1.2c0.5-0.3,0.9-0.6,1.3-0.8c0.8-0.5,1.5-0.2,1.6,0.6
	C142.2,27.5,142.4,28.8,142.5,30.1z M194.8,44.6c-0.7,0.2-1.3,0.3-1.9,0.5c0.3,0.2,0.5,0.5,0.8,0.6C194.4,45.9,195,45.8,194.8,44.6z
	"/>
<path class="st1" d="M132,68.2c22.2-4.9,44.4-3.9,67,0.1c-0.5,0.9-0.8,1.6-1.3,2.2c-6.9,7.4-15.4,11.8-25.4,13.2
	c-14.3,2-26.9-1.9-37.5-11.8c-1.1-1-2-2.1-2.9-3.2C131.9,68.5,131.9,68.3,132,68.2z M161.3,80c3.3,1.2,6.7,1.1,10,0
	C168,80,164.6,80,161.3,80z M185.5,74.4c0-0.1,0-0.1,0-0.2c-1.8,0-3.6,0-5.4,0c0,0.1,0,0.1,0,0.2C181.9,74.4,183.7,74.4,185.5,74.4z
	 M151,74.4c0-0.1,0-0.1,0-0.2c-1.8,0-3.5,0-5.3,0c0,0.1,0,0.1,0,0.2C147.5,74.4,149.2,74.4,151,74.4z"/>
<path class="st1" d="M191.4,36.3c-0.2-0.3-0.4-0.4-0.7-0.7c-0.1,0.2-0.2,0.5-0.2,0.5c1.2,0.9,0.6,2.1,0.5,3.2
	c-0.4,2.7-0.8,5.4-1.2,8.1c-0.9-0.8-2.3,1.1-2.8-0.9c-0.9,0.9-1.8,1-2.5-0.5c-0.2,0.5-0.3,0.8-0.4,1.1c-0.1-0.1-0.2-0.2-0.3-0.2
	c0.2-0.7,0.4-1.4,0.6-2.2c-0.1,0-0.2-0.1-0.3-0.1c0.4-0.5,0.8-1,1.2-1.4c-0.1-0.1-0.1-0.2-0.2-0.2c-0.3,0.1-0.6,0.2-0.9,0.4
	c0,0-0.1-0.1-0.1-0.1c0.7-1.8,0.2-3.7,0.5-5.6c0.4-1.9,0.5-3.9,0.7-5.9c0.2-2,0.5-4,0.6-6c0.1-0.9,0.5-1.5,1.2-1.6
	c0.8-0.1,1.6,0.3,2.3,0.6c1.2,0,2.3,0,3.7,0C192.6,28.7,192,32.4,191.4,36.3z"/>
<path class="st1" d="M204.3,50.5c-0.9,1.7-2,0.4-3.3,0.4c0.7-2.2,1.4-4.2,2.1-6.2c0.3-0.8,0.5-1.6,0.9-2.4c0.2-0.3,0.6-0.5,0.9-0.9
	c0.2-0.2,0.1-0.6,0.2-0.9c0.1-0.5,0.1-1.3,0.4-1.4c0.4-0.2,1.1,0,1.6,0.2c0.6,0.3,1.1,0.7,1.8,1.2c0,2,0,4.2,0,6.6
	c-0.5-0.3-0.9-0.5-1.2-0.7c0.1-0.1,0.2-0.2,0.2-0.3c-0.3,0-0.7,0.1-1,0.1c0-0.1-0.1-0.2-0.1-0.3c0.5-0.2,1-0.4,1.8-0.8
	c-0.7-0.5-1.3-0.9-2.2-1.5c-0.1,0.9-0.1,1.6-0.2,2.3c-0.1,0-0.2,0.1-0.2,0.1c-0.2-0.4-0.5-0.9-0.7-1.3c-0.4,0.3-0.8,0.5-1.4,0.9
	c1.1,0.4,2.7,0.3,1.7,2.1C205.1,48.8,204.7,49.6,204.3,50.5z M206.8,41.7c0.2-0.1,0.3-0.1,0.5-0.2c-0.4-0.7-0.8-1.3-1.2-2
	c0,0-0.4,0.1-0.4,0.1c-0.1,0.2-0.1,0.5,0,0.7C206,40.8,206.4,41.2,206.8,41.7z"/>
<path class="st1" d="M123,36.5c1.1,5,2.1,9.7,3.2,14.5c-0.5,0.2-1.1,0.4-2,0.7C123.3,46.7,121.1,42,123,36.5z"/>
<path class="st1" d="M176.7,54.8c-0.9,1.7-1.8,3.5-2.9,5.5c-0.8-2.2-1.5-4-2.2-5.9c-0.1,0-0.2,0-0.2,0c-0.2,1.4-0.4,2.9-0.7,4.3
	c-0.1,0.4-0.4,0.7-0.6,1c-0.1-0.4-0.3-0.7-0.3-1.1c0.4-2.3,0.9-4.6,1.6-7c0.8,2.2,1.6,4.4,2.5,6.8c1.2-2.3,2.3-4.4,3.4-6.5
	c0.1,0,0.2,0,0.3,0c0.2,2.5,0.4,5.1,0.5,7.6c0,0.2-0.2,0.4-0.4,0.6c-0.2-0.2-0.5-0.4-0.5-0.6c-0.1-1.1-0.1-2.2-0.2-3.3
	c0-0.5-0.1-0.9-0.1-1.4C176.9,54.9,176.8,54.9,176.7,54.8z"/>
<path class="st1" d="M149.5,54.7c-0.2,2-0.4,3.8-0.6,5.6c0,0-0.2,0-0.6,0c0.1-2.7,0.3-5.4,0.4-8c0.1,0,0.2-0.1,0.4-0.1
	c1.1,2,2.1,4.1,3.3,6.4c0.9-2.4,1.7-4.6,2.6-6.8c0.1,0,0.2,0,0.3,0c0.5,2.6,1,5.3,1.5,7.9c-0.2,0-0.3,0.1-0.5,0.1
	c-0.9-0.5-0.6-1.6-0.8-2.5c-0.2-0.9-0.4-1.9-0.7-2.9c-0.7,1.9-1.4,3.8-2.2,6C151.4,58.4,150.5,56.6,149.5,54.7z"/>
<path class="st1" d="M204.3,50.5c0.4-0.9,0.8-1.7,1.3-2.6c0.6-0.8,1.1-1.7,2.1-0.3c0.1,0.2,0.6,0,1.1,0c-0.3,1.7-0.6,3.3-0.9,5
	c-1.4-0.4-2.6-0.7-3.8-1C204.1,51.2,204.2,50.8,204.3,50.5z"/>
<path class="st1" d="M165.2,51.1c1.2,3.1,2.3,5.7,3.3,8.4c-0.1,0.1-0.2,0.2-0.4,0.3c-0.3-0.3-0.7-0.6-0.8-0.9
	c-0.8-1.9-1.3-2.2-3.3-1.8c-0.4,0.1-0.7,0.8-1.1,1.2c-0.3,0.5-0.6,1-0.9,1.5c-0.2-0.1-0.3-0.2-0.5-0.3
	C162.7,56.8,163.8,54.1,165.2,51.1z M165.1,53c-0.5,1.2-0.9,2.1-1.3,3.1c0.9,0,1.6,0,2.4,0C165.9,55.1,165.5,54.2,165.1,53z"/>
<path class="st1" d="M170.8,45.1c0.2-4.3,0.3-8.6,0.5-12.9c0.5-0.1,0.8-0.1,1.4-0.2c-0.4,1.5,0.4,3.1-0.8,4.4
	c-0.3,0.4-0.3,1.5,0,1.9c0.9,1.3,0.5,2.7,0.2,3.9c-0.3,0.8-0.5,1.6-0.6,2.4c0,0.2-0.2,0.3-0.3,0.5C171.1,45.1,170.9,45.1,170.8,45.1
	z"/>
<path class="st1" d="M176.7,42.8c0.1-0.7,0.3-1.4,0.4-2c0.1,0,0.2,0,0.3,0c0,1.1-0.1,2.2-0.1,3.3c0.1,0,0.1,0,0.2,0
	c0.3-3.8,0.6-7.6,0.9-11.4c0.1,0,0.2,0,0.3,0c0,1.2,0,2.5,0,3.7c0,0,0.1,0,0.1,0c0.1-1.1,0.3-2.3,0.4-3.4c0.1,0,0.2,0,0.3,0
	c-0.2,2.2-0.4,4.4-0.5,6.5c-0.1,0-0.2,0-0.3,0c0-0.6,0-1.2,0-1.9c-0.1,0-0.1,0-0.2,0c-0.2,2.9-0.5,5.9-0.7,8.8c-0.1,0-0.2,0-0.3,0
	c0-0.4,0-0.8,0-1.2c-0.1,0-0.1,0-0.2,0c-0.1,0.4-0.1,0.8-0.2,1.2c-0.1,0-0.1,0-0.2,0C176.7,45.1,176.7,43.9,176.7,42.8L176.7,42.8z"
	/>
<path class="st1" d="M178.9,46.1c-0.4-0.1-0.6-0.1-1-0.2c0.1-1.8,0.3-3.8,0.5-5.7c0.1,0,0.2,0,0.4,0c-0.1,1.5-0.2,2.9-0.2,4.4
	c0.1,0,0.1,0,0.2,0c0.3-4,0.7-7.9,1-11.9c0.1,0,0.3,0,0.4,0C179.7,37.2,179.3,41.6,178.9,46.1z"/>
<path class="st1" d="M181.9,53.3c-0.2,2.3-0.3,4.3-0.6,6.2c0,0.3-0.4,0.6-0.6,1c-0.1-0.3-0.3-0.7-0.3-1c0.1-2,0.3-4,0.5-6
	c0-0.4,0.3-0.8,0.5-1.2C181.6,52.8,181.8,53.2,181.9,53.3z"/>
<path class="st1" d="M159.4,51.6c0.1,0.4,0.3,0.7,0.3,1.1c0.1,2.1,0.1,4.1,0.1,6.2c0,0.3-0.2,0.6-0.4,1c-0.2-0.3-0.5-0.6-0.5-0.9
	c-0.1-2.1-0.1-4.3-0.1-6.4c0-0.3,0.1-0.6,0.2-0.8C159.1,51.6,159.3,51.6,159.4,51.6z"/>
<path class="st1" d="M127.7,61c-0.8,0.3-1.4,0.5-2,0.7c-0.2-0.6-0.4-1.2-0.6-1.8c0.5-0.5,1-1,1.6-1.5c0.4,0.2,1,0.6,1.6,0.9
	C128.1,59.8,127.9,60.5,127.7,61z"/>
<path class="st1" d="M205.3,59.4c-0.2,0.6-0.4,1.1-0.6,1.5c-0.6-0.1-1.2-0.2-2-0.3c-0.2-0.5-0.4-1.2-0.6-1.9
	c0.5-0.2,1.1-0.5,1.6-0.8C204.2,58.4,204.8,58.9,205.3,59.4z"/>
<path class="st1" d="M176.7,42.7c-0.2,1.2-0.3,2.4-0.5,3.9c0-2.1,0-3.9,0-5.7l0,0c0.1-1.1,0.2-2.2,0.4-3.2l0,0
	c0.1-1.6,0.2-3.2,0.3-4.8c0.1,0,0.2,0,0.3,0C177,36.2,176.9,39.5,176.7,42.7C176.7,42.8,176.7,42.7,176.7,42.7z"/>
<path class="st1" d="M172.8,40.9c0.1-1.4,0.2-2.8,0.2-4.1c0.1,0,0.2,0,0.3,0c0,1.4,0,2.8,0,4.2C173.2,41,173,40.9,172.8,40.9z"/>
<path class="st1" d="M176.2,40.9c-0.2,1.5-0.3,3-0.5,4.5c0,0.3-0.1,0.5-0.4,0.8c0.1-2.1,0.3-4.3,0.4-6.4c0.1,0,0.2,0,0.3,0
	C176.1,40.2,176.1,40.6,176.2,40.9C176.2,41,176.2,40.9,176.2,40.9z"/>
<path class="st1" d="M194.2,40c0.7,0.4,1.2,0.7,1.8,1.1c-0.3,0.2-0.7,0.6-1,0.5C194.2,41.6,193.6,41.3,194.2,40z"/>
<path class="st2" d="M194.8,44.6c0.2,1.3-0.5,1.3-1.1,1.1c-0.3-0.1-0.5-0.4-0.8-0.6C193.5,44.9,194.2,44.7,194.8,44.6z"/>
<path class="st7" d="M161.3,80c3.3,0,6.7,0,10,0C167.9,81.1,164.6,81.2,161.3,80z"/>
<path class="st7" d="M185.5,74.4c-1.8,0-3.6,0-5.4,0c0-0.1,0-0.1,0-0.2c1.8,0,3.6,0,5.4,0C185.5,74.3,185.5,74.3,185.5,74.4z"/>
<path class="st7" d="M151,74.4c-1.8,0-3.5,0-5.3,0c0-0.1,0-0.1,0-0.2c1.8,0,3.5,0,5.3,0C151,74.2,151,74.3,151,74.4z"/>
<path class="st2" d="M206.8,41.7c-0.4-0.5-0.8-0.9-1.1-1.4c-0.1-0.2-0.1-0.5,0-0.7c0-0.1,0.4-0.2,0.4-0.1c0.4,0.7,0.8,1.3,1.2,2
	C207.1,41.5,206.9,41.6,206.8,41.7z"/>
<path class="st2" d="M165.1,53c0.5,1.2,0.8,2.1,1.2,3.1c-0.8,0-1.6,0-2.4,0C164.2,55.1,164.6,54.3,165.1,53z"/>
</svg>
