<?xml version="1.0" encoding="utf-8"?>
<!-- Generator: Adobe Illustrator 19.0.0, SVG Export Plug-In . SVG Version: 6.00 Build 0)  -->
<svg version="1.1" id="Capa_1" xmlns="http://www.w3.org/2000/svg" xmlns:xlink="http://www.w3.org/1999/xlink" x="0px" y="0px"
	 viewBox="0 0 215.7 174.4" style="enable-background:new 0 0 215.7 174.4;" xml:space="preserve">
<style type="text/css">
	.st0{opacity:0.18;fill:#030104;enable-background:new    ;}
	.st1{fill:#FFFFFF;}
	.st2{fill:#626060;}
	.st3{fill:#626060;stroke:#FFFFFF;stroke-miterlimit:10;}
	.st4{fill:#5387C3;}
	.st5{opacity:0;fill:#030104;stroke:#FFFFFF;stroke-miterlimit:10;enable-background:new    ;}
	.st6{fill:#FCFCFC;}
</style>
<ellipse class="st0" cx="99.4" cy="87.2" rx="89.7" ry="87.2"/>
<path class="st1" d="M30.5,26.6c-2.8-0.4-4.5-1.8-4.4-4.7c0-2.7,1.5-4.2,4.2-4.3c2.9-0.1,4.6,1.5,4.7,4.3
	C35,24.8,33.2,26.2,30.5,26.6z"/>
<path class="st1" d="M196.7,85.1c0-5.2,0-9.7,0-14.3C202.8,75.8,202.9,78.6,196.7,85.1z"/>
<g>
	<polygon class="st2" points="94.9,33.4 56.2,40.9 57.6,73 81.3,85 118.6,71.8 119.6,39.3 	"/>
</g>
<polygon class="st2" points="94.9,33.2 56,40.7 58,73 81.2,85 118.9,71.8 119.9,39 "/>
<path class="st2" d="M64.7,43.4l-0.2,0c-0.2,0.1-0.3,0.1-0.3,0.2l1.7,0.6l2.9,0.9c0-0.1,0.1-0.2,0.3-0.2L64.7,43.4z"/>
<path class="st3" d="M81.2,85c0.3-1.4-0.7-32.6-0.8-36.6C80.1,49.8,80.9,81.9,81.2,85z"/>
<polygon class="st3" points="119.9,39.4 80.4,48.7 80.4,48.3 119.9,39 "/>
<polygon class="st3" points="80.4,48.3 56,40.7 56,40.8 65.9,44.2 80.4,48.7 "/>
<path class="st2" d="M66.9,44.1l39-8.4c-0.1,0-0.1,0-0.2-0.1l-39,8.4L66.9,44.1z"/>
<g>
	<path class="st4" d="M215.7,78.7c-3.7,5.9-7.3,11.8-11.1,17.6c-0.9,1.4-2.5,3-4.1,3.4c-4,0.9-4,3.6-4,6.7c0.1,14.8,0.1,29.7,0,44.5
		c0,6.8-3.2,10.4-9.2,10.3c-5.9-0.1-8.9-3.4-8.9-10.1c0-12,0-23.9,0-35.9c0-1.6-0.1-3.1-0.2-4.7c-0.5,0-0.9-0.1-1.4-0.1
		c-0.3,1.4-0.8,2.8-0.8,4.1c-0.1,12.4,0,24.8-0.1,37.2c0,7.3-5.2,11-12.1,8.9c-4.5-1.4-5.7-4.8-5.7-9.2c0.1-26.2,0-52.4,0-78.5
		c0-1.6,0-3.3,0-5.6c-4,1.3-7.4,2.2-10.8,3.4c-4.5,1.6-8.8,1.6-13.3-0.1c-4.5-1.7-9.3-2.9-13.5-5.2c-2.5-1.3-5.1-4.1-5.9-6.7
		c-1.9-6.1,2-9.3,8-7.2c4.1,1.4,8.3,2.9,12.3,4.6c3.6,1.6,7.1,1.5,10.4-0.6c7.8-5.1,16.2-6.8,25.4-6.2c6.9,0.5,13.9,0.1,20.9,0.1
		c4.1,0,7.5,1.4,9.8,4.7c4.7,6.6,9.4,13.3,14,20C215.7,75.7,215.7,77.2,215.7,78.7z M196.7,85.1c6.2-6.5,6.1-9.4,0-14.3
		C196.7,75.4,196.7,79.9,196.7,85.1z"/>
	<path class="st4" d="M177.5,8.6c10.1,0.1,18.1,8.2,18.1,18.2c0,9.8-8.5,18.2-18.3,18.2c-10.1,0-18.2-8.3-18.1-18.6
		C159.3,16.3,167.3,8.5,177.5,8.6z"/>
	<g>
		<polygon class="st5" points="56,40.7 57.6,73 81.2,85 80.4,48.3 		"/>
		<polygon class="st2" points="80.4,48.3 119.9,39 118.9,71.8 81.2,85 		"/>
		<polygon class="st2" points="56,40.7 94.9,33.2 119.9,39 80.4,48.3 		"/>
		<path class="st6" d="M64.6,43.4l4.5,1.4l38.7-8.6c-1.2-0.3-2.4-0.6-3.5-0.8L64.6,43.4z"/>
		<path class="st6" d="M64.6,43.4c-0.4,0.2-0.5,0.2-0.5,0.9c0,0.7,0.2,6.4,0.2,6.4l4.5,1.7c0,0,0-6.3,0-6.7c0-0.4,0-0.8,0.3-0.9
			L64.6,43.4z"/>
		<g>
			<polygon class="st6" points="117.3,70.2 104.7,75.3 104.4,62 117.7,58 			"/>
			<polygon class="st6" points="104.7,68.6 117.4,64.2 117.4,64.3 104.7,68.8 			"/>
			<polygon class="st6" points="111.4,60 111.3,72.5 111.1,72.6 111.3,60 			"/>
		</g>
		<g>
			<g>
				<path class="st2" d="M114.3,69.6c0,0-1.1,0.5-1.6,0.6c-0.4,0.2-0.5,0.1-0.5,0.1s0.5,0.8,0.8,0.7c0.2-0.1,1.2-0.5,1.2-0.5
					L114.3,69.6z"/>
				<g>
					<path class="st2" d="M113.7,69.2l-0.4-0.7l-1,0.5l0.3,0l-0.4,0.9c-0.1,0.3,0.2,0.3,0.5,0.2c0.1,0,0.2-0.1,0.3-0.1l0,0l0,0
						l0.4-0.9L113.7,69.2z"/>
				</g>
				<path class="st2" d="M115.4,68c0,0,0.5,0.7,0.7,1c0.2,0.3,0.1,0.5,0.1,0.5s0.6-1.1,0.5-1.4c-0.1-0.2-0.6-0.8-0.6-0.8L115.4,68z"
					/>
				<g>
					<path class="st2" d="M115,68.9l-0.6,1l0.6,0.5v-0.3l0.8-0.3c0.3-0.1,0.3-0.5,0.1-0.7c0,0-0.1-0.1-0.1-0.2l0,0l0,0l-0.8,0.3
						L115,68.9z"/>
				</g>
				<path class="st2" d="M113.8,68.3c0,0,0.6-1.2,0.8-1.6c0.2-0.4,0.4-0.5,0.4-0.5s-1.1,0.4-1.3,0.7c-0.1,0.3-0.6,1.3-0.6,1.3
					L113.8,68.3z"/>
				<g>
					<path class="st2" d="M114.7,67.8l1-0.3l0.4-1l-0.3,0.3l-0.4-0.5c-0.2-0.2-0.5,0.1-0.6,0.4c0,0.1-0.1,0.2-0.1,0.3l0,0l0,0
						l0.4,0.5L114.7,67.8z"/>
				</g>
			</g>
			<g>
				<polygon class="st2" points="108,66.6 107.7,66.7 107.7,65 108,64.9 				"/>
				<path class="st2" d="M106.9,67.2l2.1-0.7c0,0-0.7,0-1.1,0.1C107.4,66.7,106.9,67.2,106.9,67.2z"/>
				<path class="st2" d="M109.2,61.2l-2,0.6l0.3,1.3l-0.3-0.1l0.4,1l-0.8-1.2l0.4,0.1l-0.4-1.1l-0.4,0.1c0,0-0.5,3.7,1.4,3.1
					C109.7,64.5,109.2,61.2,109.2,61.2z"/>
			</g>
			<g>
				<polygon class="st2" points="116.3,64 112.6,65.2 112.6,64.5 116.3,63.2 				"/>
				<g>
					<polygon class="st2" points="113.9,63.9 113.2,64.1 113.2,61.4 113.9,61.2 					"/>
					<polygon class="st2" points="112.7,61.7 113.6,59.9 114.4,61.1 					"/>
				</g>
				<g>
					<polygon class="st2" points="115.9,63.2 115.2,63.4 115.3,60.8 115.9,60.6 					"/>
					<polygon class="st2" points="114.8,61 115.6,59.3 116.4,60.5 					"/>
				</g>
			</g>
			<g>
				<g>
					<path class="st2" d="M107.8,70.3c0,0,0,2.4,0,2.6c0,0.3-0.5,0.8-0.8,0.2l-0.2,0.1c0,0,0.2,0.5,0.7,0.3c0.5-0.2,0.6-0.6,0.6-0.8
						s0-2.6,0-2.6L107.8,70.3z"/>
					<path class="st2" d="M106.7,71.5c0.2-0.1,0.3-0.1,0.5-0.1c0.2-0.2,0.5-0.3,0.7-0.4c0.3-0.1,0.6-0.1,0.8-0.1
						c0.2-0.1,0.4-0.3,0.6-0.3c0.3-0.1,0.6-0.1,0.9,0v0c0-1-0.9-1.5-2.1-1.1c-1.2,0.4-2.2,1.7-2.2,2.7c0,0,0,0,0,0
						C106,71.9,106.3,71.7,106.7,71.5z"/>
				</g>
				<g>
					<path class="st2" d="M107.3,69.3c0,0-0.5,0.5-0.3,0.5C107.2,69.9,107.3,69.3,107.3,69.3z"/>
					<path class="st2" d="M108.3,68.5c0,0-0.5,0.5-0.3,0.5C108.2,69.1,108.3,68.5,108.3,68.5z"/>
					<path class="st2" d="M109.4,67.7c0,0-0.5,0.5-0.3,0.5C109.3,68.2,109.4,67.7,109.4,67.7z"/>
					<path class="st2" d="M109.5,68.2c0,0-0.5,0.5-0.3,0.5C109.4,68.7,109.5,68.2,109.5,68.2z"/>
					<path class="st2" d="M108.8,68.8c0,0-0.5,0.5-0.3,0.5C108.7,69.4,108.8,68.8,108.8,68.8z"/>
				</g>
			</g>
		</g>
	</g>
	<path class="st4" d="M42.9,23.7c-0.6,2.7-0.9,5.1-1.7,7.3C38.1,40,28.1,44.5,19.1,41.2C10.2,38,5.7,28.3,8.8,19.4
		c3.2-9.1,13-13.7,22.1-10.8c3.2,1,6.7,1.1,10.1,1.3c1.6,0.1,3.3-0.6,4.9-0.5c3.2,0.1,7.5-2,8.5,3.2c0.8,4.1-3.4,9.6-7.7,10.4
		C45.6,23.3,44.4,23.5,42.9,23.7z"/>
	<path class="st4" d="M0,153.8c6.7-12.4,12.1-25.1,11.8-39.7c-0.3-18.8,0-37.5,0-56.3c0-7.1,2.2-9.6,9.3-10.1
		c5.9-0.4,11.8-0.5,17.7-0.7c4.8-0.1,7.7,2.6,8.4,7.7c1,6.4,2,12.8,2.9,19.3c0.5,3.7,2,5.7,6.2,5.4c4.4-0.3,8.8-0.1,13.2,0.1
		c4.5,0.2,7.2,2.6,7.2,6c0,3.4-2.7,5.6-7.4,5.6c-7.2,0.1-14.4,0-22.7,0c0.8,4.2,1.1,7,1.9,9.6c3.6,10.6,7.9,20.9,10.8,31.6
		c1.9,7.2,1.9,15,2.5,22.5c0.4,5.6-1.6,8.2-6.3,8.6c-4.7,0.5-8.4-2.5-9.1-7.5c-0.5-3.3-0.8-6.6-1-9.9c-0.5-7.4-2.1-14.3-6.8-20.3
		c-2.7-3.4-4.8-7.2-7.7-11.6c-1.6,6.3-2.4,12-4.4,17.3c-3.5,9.1-7.3,18.2-11.8,26.9c-2.9,5.7-9.6,5.4-14.7,0
		C0,156.8,0,155.3,0,153.8z"/>
</g>
</svg>
